<?xml version="1.0" encoding="utf-8"?>
<!-- Generator: Adobe Illustrator 25.1.0, SVG Export Plug-In . SVG Version: 6.00 Build 0)  -->
<svg version="1.1" id="圖層_1" xmlns="http://www.w3.org/2000/svg" xmlns:xlink="http://www.w3.org/1999/xlink" x="0px" y="0px"
	 viewBox="0 0 208.9 38.4" style="enable-background:new 0 0 208.9 38.4;" xml:space="preserve">
<style type="text/css">
	.st0{fill:#7047A9;}
	.st1{fill:#666666;}
</style>
<path class="st0" d="M16.5,3.6v4.9H6.2v5.3h7.7v4.8H6.2v10.2H0V3.6H16.5z"/>
<path class="st0" d="M36.1,5.1c2,1.1,3.5,2.5,4.6,4.4c1.1,1.9,1.6,4.1,1.6,6.6c0,2.5-0.5,4.7-1.6,6.6c-1.1,1.9-2.6,3.4-4.6,4.5
	c-2,1.1-4.3,1.6-7,1.6h-9.5V3.6h9.5C31.8,3.6,34.2,4.1,36.1,5.1z M34.2,21.6c1.3-1.3,1.9-3.1,1.9-5.4c0-2.3-0.6-4.1-1.9-5.4
	c-1.3-1.3-3.1-1.9-5.4-1.9h-2.9v14.7h2.9C31.1,23.5,32.9,22.9,34.2,21.6z"/>
<path class="st0" d="M46.4,9.5C47.5,7.5,49,6,51,4.9c1.9-1.1,4.1-1.6,6.6-1.6c3,0,5.6,0.8,7.7,2.4c2.1,1.6,3.6,3.7,4.3,6.5h-6.8
	c-0.5-1.1-1.2-1.9-2.1-2.4c-0.9-0.6-2-0.8-3.1-0.8c-1.9,0-3.4,0.7-4.6,2s-1.8,3.1-1.8,5.3s0.6,4,1.8,5.3c1.2,1.3,2.7,2,4.6,2
	c1.2,0,2.2-0.3,3.1-0.8c0.9-0.6,1.6-1.4,2.1-2.4h6.8c-0.7,2.7-2.1,4.9-4.3,6.5c-2.1,1.6-4.7,2.4-7.7,2.4c-2.4,0-4.6-0.5-6.6-1.6
	c-1.9-1.1-3.4-2.6-4.5-4.6c-1.1-1.9-1.6-4.2-1.6-6.7S45.4,11.4,46.4,9.5z"/>
<path class="st1" d="M87.1,24.1h8.1v4.8H80.9V3.6h6.2V24.1z"/>
<path class="st1" d="M98.5,5.7c-0.7-0.6-1-1.4-1-2.4c0-1,0.3-1.8,1-2.4c0.7-0.6,1.6-1,2.6-1c1.1,0,1.9,0.3,2.6,1
	c0.7,0.6,1,1.4,1,2.4c0,0.9-0.3,1.7-1,2.4c-0.7,0.6-1.6,1-2.6,1C100.1,6.7,99.2,6.3,98.5,5.7z M104.3,8.7v20.1h-6.2V8.7H104.3z"/>
<path class="st1" d="M117.4,9.3c1.1-0.6,2.3-0.9,3.7-0.9c1.7,0,3.2,0.4,4.5,1.3c1.3,0.8,2.4,2,3.2,3.6c0.8,1.6,1.2,3.4,1.2,5.4
	c0,2.1-0.4,3.9-1.2,5.5c-0.8,1.6-1.8,2.8-3.2,3.6c-1.3,0.9-2.8,1.3-4.5,1.3c-1.4,0-2.7-0.3-3.7-0.8c-1.1-0.6-1.9-1.3-2.5-2.2v2.8
	h-6.2V2.2h6.2v9.4C115.5,10.7,116.3,9.9,117.4,9.3z M122.4,15.1c-0.9-0.9-1.9-1.3-3.1-1.3c-1.2,0-2.3,0.4-3.1,1.3
	c-0.9,0.9-1.3,2.1-1.3,3.6c0,1.5,0.4,2.7,1.3,3.6c0.9,0.9,1.9,1.3,3.1,1.3c1.2,0,2.3-0.4,3.1-1.3c0.9-0.9,1.3-2.1,1.3-3.7
	C123.7,17.2,123.2,16,122.4,15.1z"/>
<path class="st1" d="M142,9.5c1.1-0.6,2.3-1,3.6-1V15h-1.7c-1.5,0-2.7,0.3-3.5,1c-0.8,0.7-1.2,1.8-1.2,3.5v9.3h-6.2V8.7h6.2v3.3
	C140,11,140.9,10.1,142,9.5z"/>
<path class="st1" d="M148.5,13.3c0.8-1.6,1.8-2.8,3.2-3.6c1.3-0.8,2.8-1.3,4.5-1.3c1.4,0,2.7,0.3,3.7,0.9c1.1,0.6,1.9,1.3,2.5,2.3
	V8.7h6.2v20.1h-6.2V26c-0.6,0.9-1.4,1.7-2.5,2.3c-1.1,0.6-2.3,0.9-3.7,0.9c-1.6,0-3.1-0.4-4.5-1.3c-1.3-0.9-2.4-2.1-3.2-3.6
	c-0.8-1.6-1.2-3.4-1.2-5.5C147.3,16.7,147.7,14.9,148.5,13.3z M161.1,15.2c-0.9-0.9-1.9-1.3-3.1-1.3s-2.3,0.4-3.1,1.3
	c-0.9,0.9-1.3,2.1-1.3,3.6c0,1.5,0.4,2.8,1.3,3.7c0.9,0.9,1.9,1.3,3.1,1.3s2.3-0.4,3.1-1.3c0.9-0.9,1.3-2.1,1.3-3.6
	C162.4,17.3,162,16,161.1,15.2z"/>
<path class="st1" d="M181.9,9.5c1.1-0.6,2.3-1,3.6-1V15h-1.7c-1.5,0-2.7,0.3-3.5,1c-0.8,0.7-1.2,1.8-1.2,3.5v9.3H173V8.7h6.2v3.3
	C179.9,11,180.8,10.1,181.9,9.5z"/>
<path class="st1" d="M208.9,8.7l-12.6,29.6h-6.6l4.6-10.2l-8.2-19.4h6.9l4.6,12.6l4.6-12.6H208.9z"/>
</svg>
