<?xml version="1.0" encoding="utf-8"?>
<!-- Generator: Adobe Illustrator 25.1.0, SVG Export Plug-In . SVG Version: 6.00 Build 0)  -->
<svg version="1.1" id="圖層_1" xmlns="http://www.w3.org/2000/svg" xmlns:xlink="http://www.w3.org/1999/xlink" x="0px" y="0px"
	 viewBox="0 0 213.3 38.7" style="enable-background:new 0 0 213.3 38.7;" xml:space="preserve">
<style type="text/css">
	.st0{fill:#153261;}
	.st1{fill:#B90007;}
	.st2{fill:#EEB400;}
	.st3{fill:#008C92;}
</style>
<path class="st0" d="M19.5,3.6v4.9h-6.7v20.3H6.7V8.5H0V3.6H19.5z"/>
<path class="st1" d="M31.5,9.5c1.1-0.6,2.3-1,3.6-1V15h-1.7c-1.5,0-2.7,0.3-3.5,1c-0.8,0.7-1.2,1.8-1.2,3.5v9.3h-6.2V8.7h6.2v3.3
	C29.5,11,30.4,10.1,31.5,9.5z"/>
<path class="st2" d="M38,13.3c0.8-1.6,1.8-2.8,3.2-3.6c1.3-0.8,2.8-1.3,4.5-1.3c1.4,0,2.7,0.3,3.7,0.9c1.1,0.6,1.9,1.3,2.5,2.3V8.7
	H58v20.1h-6.2V26c-0.6,0.9-1.4,1.7-2.5,2.3c-1.1,0.6-2.3,0.9-3.7,0.9c-1.6,0-3.1-0.4-4.5-1.3c-1.3-0.9-2.4-2.1-3.2-3.6
	c-0.8-1.6-1.2-3.4-1.2-5.5C36.8,16.7,37.2,14.9,38,13.3z M50.6,15.2c-0.9-0.9-1.9-1.3-3.1-1.3s-2.3,0.4-3.1,1.3
	c-0.9,0.9-1.3,2.1-1.3,3.6c0,1.5,0.4,2.8,1.3,3.7c0.9,0.9,1.9,1.3,3.1,1.3s2.3-0.4,3.1-1.3c0.9-0.9,1.3-2.1,1.3-3.6
	C51.9,17.3,51.4,16,50.6,15.2z"/>
<path class="st0" d="M62.9,5.7c-0.7-0.6-1-1.4-1-2.4c0-1,0.3-1.8,1-2.4c0.7-0.6,1.6-1,2.6-1c1.1,0,1.9,0.3,2.6,1
	c0.7,0.6,1,1.4,1,2.4c0,0.9-0.3,1.7-1,2.4c-0.7,0.6-1.6,1-2.6,1C64.5,6.7,63.6,6.3,62.9,5.7z M68.7,8.7v20.1h-6.2V8.7H68.7z"/>
<path class="st3" d="M91,10.8c1.4,1.5,2.1,3.6,2.1,6.3v11.7H87V17.9c0-1.3-0.3-2.4-1-3.1c-0.7-0.7-1.6-1.1-2.8-1.1
	c-1.2,0-2.1,0.4-2.8,1.1c-0.7,0.7-1,1.8-1,3.1v10.9h-6.2V8.7h6.2v2.7c0.6-0.9,1.5-1.6,2.5-2.1c1.1-0.5,2.2-0.8,3.6-0.8
	C87.7,8.5,89.6,9.3,91,10.8z"/>
<path class="st1" d="M97.8,5.7c-0.7-0.6-1-1.4-1-2.4c0-1,0.3-1.8,1-2.4c0.7-0.6,1.6-1,2.6-1c1.1,0,1.9,0.3,2.6,1
	c0.7,0.6,1,1.4,1,2.4c0,0.9-0.3,1.7-1,2.4c-0.7,0.6-1.6,1-2.6,1C99.4,6.7,98.5,6.3,97.8,5.7z M103.5,8.7v20.1h-6.2V8.7H103.5z"/>
<path class="st0" d="M125.9,10.8c1.4,1.5,2.1,3.6,2.1,6.3v11.7h-6.1V17.9c0-1.3-0.3-2.4-1-3.1c-0.7-0.7-1.6-1.1-2.8-1.1
	c-1.2,0-2.1,0.4-2.8,1.1c-0.7,0.7-1,1.8-1,3.1v10.9H108V8.7h6.2v2.7c0.6-0.9,1.5-1.6,2.5-2.1c1.1-0.5,2.2-0.8,3.6-0.8
	C122.6,8.5,124.5,9.3,125.9,10.8z"/>
<path class="st2" d="M143.6,9.3c1.1,0.6,1.9,1.3,2.5,2.3V8.7h6.2v20.1c0,1.8-0.4,3.5-1.1,5c-0.7,1.5-1.8,2.7-3.3,3.6
	c-1.5,0.9-3.4,1.3-5.6,1.3c-3,0-5.4-0.7-7.2-2.1c-1.8-1.4-2.9-3.3-3.2-5.7h6.1c0.2,0.8,0.6,1.4,1.4,1.8c0.7,0.4,1.6,0.7,2.7,0.7
	c1.3,0,2.3-0.4,3-1.1c0.8-0.7,1.1-1.9,1.1-3.5V26c-0.6,0.9-1.4,1.7-2.5,2.3c-1.1,0.6-2.3,0.9-3.7,0.9c-1.7,0-3.2-0.4-4.5-1.3
	c-1.3-0.9-2.4-2.1-3.2-3.6c-0.8-1.6-1.2-3.4-1.2-5.5c0-2.1,0.4-3.9,1.2-5.4c0.8-1.6,1.8-2.8,3.2-3.6c1.3-0.8,2.8-1.3,4.5-1.3
	C141.3,8.5,142.6,8.7,143.6,9.3z M144.8,15.2c-0.9-0.9-1.9-1.3-3.1-1.3c-1.2,0-2.3,0.4-3.1,1.3c-0.9,0.9-1.3,2.1-1.3,3.6
	c0,1.5,0.4,2.8,1.3,3.7c0.9,0.9,1.9,1.3,3.1,1.3c1.2,0,2.3-0.4,3.1-1.3c0.9-0.9,1.3-2.1,1.3-3.6C146.1,17.3,145.7,16,144.8,15.2z"/>
<path class="st0" d="M170.5,24.1h8.1v4.8h-14.2V3.6h6.2V24.1z"/>
<path class="st1" d="M182,5.7c-0.7-0.6-1-1.4-1-2.4c0-1,0.3-1.8,1-2.4c0.7-0.6,1.6-1,2.6-1c1.1,0,1.9,0.3,2.6,1c0.7,0.6,1,1.4,1,2.4
	c0,0.9-0.3,1.7-1,2.4c-0.7,0.6-1.6,1-2.6,1C183.5,6.7,182.6,6.3,182,5.7z M187.7,8.7v20.1h-6.2V8.7H187.7z"/>
<path class="st2" d="M200.8,9.3c1.1-0.6,2.3-0.9,3.7-0.9c1.7,0,3.2,0.4,4.5,1.3c1.3,0.8,2.4,2,3.2,3.6c0.8,1.6,1.2,3.4,1.2,5.4
	c0,2.1-0.4,3.9-1.2,5.5c-0.8,1.6-1.8,2.8-3.2,3.6c-1.3,0.9-2.8,1.3-4.5,1.3c-1.4,0-2.7-0.3-3.7-0.8c-1.1-0.6-1.9-1.3-2.5-2.2v2.8
	h-6.2V2.2h6.2v9.4C198.9,10.7,199.7,9.9,200.8,9.3z M205.8,15.1c-0.9-0.9-1.9-1.3-3.1-1.3c-1.2,0-2.3,0.4-3.1,1.3
	c-0.9,0.9-1.3,2.1-1.3,3.6c0,1.5,0.4,2.7,1.3,3.6c0.9,0.9,1.9,1.3,3.1,1.3c1.2,0,2.3-0.4,3.1-1.3c0.9-0.9,1.3-2.1,1.3-3.7
	C207.1,17.2,206.6,16,205.8,15.1z"/>
</svg>
