<?xml version="1.0" encoding="utf-8"?>
<!-- Generator: Adobe Illustrator 25.1.0, SVG Export Plug-In . SVG Version: 6.00 Build 0)  -->
<svg version="1.1" id="圖層_1" xmlns="http://www.w3.org/2000/svg" xmlns:xlink="http://www.w3.org/1999/xlink" x="0px" y="0px"
	 viewBox="0 0 213.3 38.7" style="enable-background:new 0 0 213.3 38.7;" xml:space="preserve">
<style type="text/css">
	.st0{fill:#153261;}
	.st1{fill:#B90007;}
	.st2{fill:#EEB400;}
	.st3{fill:#008C92;}
	.st4{fill:#D08000;}
	.st5{fill:#C46400;}
	.st6{fill:#FFFFFF;}
	.st7{fill:#E1E0E0;}
	.st8{fill:#FBC902;}
	.st9{fill:#133079;}
	.st10{fill:#41BAC1;}
	.st11{fill:#DA0010;}
	.st12{fill:#FCEFDB;}
	.st13{fill:#D7B669;}
</style>
<path class="st0" d="M19.5,3.6v4.9h-6.7v20.3H6.7V8.5H0V3.6H19.5z"/>
<path class="st1" d="M30.5,9.5c1.1-0.6,2.3-1,3.6-1V15h-1.7c-1.5,0-2.7,0.3-3.5,1c-0.8,0.7-1.2,1.8-1.2,3.5v9.3h-6.2V8.7h6.2V12
	C28.5,11,29.4,10.1,30.5,9.5z"/>
<path class="st2" d="M37,13.3c0.8-1.6,1.8-2.8,3.2-3.6c1.3-0.8,2.8-1.3,4.5-1.3c1.4,0,2.7,0.3,3.7,0.9c1.1,0.6,1.9,1.3,2.5,2.3V8.7
	H57v20.1h-6.2V26c-0.6,0.9-1.4,1.7-2.5,2.3c-1.1,0.6-2.3,0.9-3.7,0.9c-1.6,0-3.1-0.4-4.5-1.3c-1.3-0.9-2.4-2.1-3.2-3.6
	c-0.8-1.6-1.2-3.4-1.2-5.5C35.8,16.7,36.2,14.9,37,13.3z M49.6,15.2c-0.9-0.9-1.9-1.3-3.1-1.3s-2.3,0.4-3.1,1.3
	c-0.9,0.9-1.3,2.1-1.3,3.6s0.4,2.8,1.3,3.7c0.9,0.9,1.9,1.3,3.1,1.3s2.3-0.4,3.1-1.3c0.9-0.9,1.3-2.1,1.3-3.6
	C50.9,17.3,50.4,16,49.6,15.2z"/>
<path class="st0" d="M61.9,5.7c-0.7-0.6-1-1.4-1-2.4s0.3-1.8,1-2.4s1.6-1,2.6-1c1.1,0,1.9,0.3,2.6,1c0.7,0.6,1,1.4,1,2.4
	c0,0.9-0.3,1.7-1,2.4c-0.7,0.6-1.6,1-2.6,1S62.6,6.3,61.9,5.7z M67.7,8.7v20.1h-6.2V8.7H67.7z"/>
<path class="st3" d="M90,10.8c1.4,1.5,2.1,3.6,2.1,6.3v11.7H86V17.9c0-1.3-0.3-2.4-1-3.1c-0.7-0.7-1.6-1.1-2.8-1.1
	c-1.2,0-2.1,0.4-2.8,1.1c-0.7,0.7-1,1.8-1,3.1v10.9h-6.2V8.7h6.2v2.7c0.6-0.9,1.5-1.6,2.5-2.1c1.1-0.5,2.2-0.8,3.6-0.8
	C86.7,8.5,88.6,9.3,90,10.8z"/>
<path class="st1" d="M96.8,5.7c-0.7-0.6-1-1.4-1-2.4s0.3-1.8,1-2.4s1.6-1,2.6-1c1.1,0,1.9,0.3,2.6,1c0.7,0.6,1,1.4,1,2.4
	c0,0.9-0.3,1.7-1,2.4c-0.7,0.6-1.6,1-2.6,1S97.5,6.3,96.8,5.7z M102.5,8.7v20.1h-6.2V8.7H102.5z"/>
<path class="st2" d="M143.6,9.3c1.1,0.6,1.9,1.3,2.5,2.3V8.7h6.2v20.1c0,1.8-0.4,3.5-1.1,5c-0.7,1.5-1.8,2.7-3.3,3.6
	c-1.5,0.9-3.4,1.3-5.6,1.3c-3,0-5.4-0.7-7.2-2.1c-1.8-1.4-2.9-3.3-3.2-5.7h6.1c0.2,0.8,0.6,1.4,1.4,1.8c0.7,0.4,1.6,0.7,2.7,0.7
	c1.3,0,2.3-0.4,3-1.1c0.8-0.7,1.1-1.9,1.1-3.5V26c-0.6,0.9-1.4,1.7-2.5,2.3c-1.1,0.6-2.3,0.9-3.7,0.9c-1.7,0-3.2-0.4-4.5-1.3
	s-2.4-2.1-3.2-3.6c-0.8-1.6-1.2-3.4-1.2-5.5s0.4-3.9,1.2-5.4c0.8-1.6,1.8-2.8,3.2-3.6c1.3-0.8,2.8-1.3,4.5-1.3
	C141.3,8.5,142.6,8.7,143.6,9.3z M144.8,15.2c-0.9-0.9-1.9-1.3-3.1-1.3c-1.2,0-2.3,0.4-3.1,1.3c-0.9,0.9-1.3,2.1-1.3,3.6
	s0.4,2.8,1.3,3.7c0.9,0.9,1.9,1.3,3.1,1.3c1.2,0,2.3-0.4,3.1-1.3c0.9-0.9,1.3-2.1,1.3-3.6C146.1,17.3,145.7,16,144.8,15.2z"/>
<path class="st0" d="M170.5,24.1h8.1v4.8h-14.2V3.6h6.2v20.5H170.5z"/>
<path class="st1" d="M182,5.7c-0.7-0.6-1-1.4-1-2.4s0.3-1.8,1-2.4s1.6-1,2.6-1c1.1,0,1.9,0.3,2.6,1c0.7,0.6,1,1.4,1,2.4
	c0,0.9-0.3,1.7-1,2.4c-0.7,0.6-1.6,1-2.6,1C183.5,6.7,182.6,6.3,182,5.7z M187.7,8.7v20.1h-6.2V8.7H187.7z"/>
<path class="st2" d="M200.8,9.3c1.1-0.6,2.3-0.9,3.7-0.9c1.7,0,3.2,0.4,4.5,1.3c1.3,0.8,2.4,2,3.2,3.6s1.2,3.4,1.2,5.4
	c0,2.1-0.4,3.9-1.2,5.5s-1.8,2.8-3.2,3.6c-1.3,0.9-2.8,1.3-4.5,1.3c-1.4,0-2.7-0.3-3.7-0.8c-1.1-0.6-1.9-1.3-2.5-2.2v2.8h-6.2V2.2
	h6.2v9.4C198.9,10.7,199.7,9.9,200.8,9.3z M205.8,15.1c-0.9-0.9-1.9-1.3-3.1-1.3c-1.2,0-2.3,0.4-3.1,1.3c-0.9,0.9-1.3,2.1-1.3,3.6
	s0.4,2.7,1.3,3.6c0.9,0.9,1.9,1.3,3.1,1.3c1.2,0,2.3-0.4,3.1-1.3c0.9-0.9,1.3-2.1,1.3-3.7C207.1,17.2,206.6,16,205.8,15.1z"/>
<g>
	<path class="st4" d="M118.1,23.5c9.2-0.7,12.4,0.2,13.9,0.7c1.9,0.5,0.7,3.3,0.7,3.3l-12,7.5L105,27.8L118.1,23.5z"/>
	<path class="st5" d="M120.6,33.7c0,0,0.5,1.3,0.1,1.4c-0.4,0.1-15.7-6.7-15.7-6.7s-0.3-0.4,0-0.8c0.4-0.4,1.6-1.1,2.7-1.5
		c2.1-0.8,13,5.6,13,5.6L120.6,33.7z"/>
	<path class="st6" d="M105.3,24.9l12.4-2.4c8.1,0.8,12.1,1.5,13.7,2.4c1.8,0.9-0.2,2.4-0.2,2.4l-10.6,6.5l-15.1-6.4L105.3,24.9z"/>
	<path class="st7" d="M120.7,33.8l-15.2-6.3c0.2-0.8-0.4-2.5-0.2-2.9l2.3,0.1c1.7,0.3,12.5,4.3,12.9,5.1c0,0-0.6,1.1,0,3.4
		C120.6,33.3,120.7,33.8,120.7,33.8z"/>
	<path class="st4" d="M105.1,23.9L117,20c0.6-0.1,15.3,4.2,15.3,4.2l-0.6,0.2L120,31.3l-14.9-6.8V23.9z"/>
	<polygon class="st5" points="120,31.3 120,30.3 105,23.9 104.9,24.1 104.9,24.7 	"/>
</g>
<g>
	<path class="st2" d="M119.1,18.6c-9.2,0.2-12.2,1.4-13.7,2c-1.9,0.7-0.5,3.4-0.5,3.4l12.7,6.4l15-8.6L119.1,18.6z"/>
	<path class="st8" d="M117.6,29c0,0-0.5,1.3-0.1,1.4c0.4,0,15-8.1,15-8.1s0.3-0.5-0.1-0.8c-0.5-0.3-1.7-1-2.8-1.3
		c-2.1-0.6-12.4,6.7-12.4,6.7L117.6,29z"/>
	<path class="st7" d="M132,18.9l-12.6-1.3c-8,1.5-11.9,2.6-13.4,3.6c-1.7,1.1,0.4,2.4,0.4,2.4l11.1,5.5l14.5-7.7V18.9z"/>
	<path class="st6" d="M117.4,29.1l14.6-7.6c-0.2-0.8,0.2-2.5-0.1-2.9l-2.3,0.3c-1.7,0.5-12.1,5.4-12.4,6.3c0,0,0.9,1.5,0.2,3.8
		C117.5,29,117.4,29.1,117.4,29.1z"/>
	<path class="st2" d="M132.1,17.8L119.9,15c-0.6,0-14.7,5.5-14.7,5.5l0.4,0.2l12.2,5.8l14.3-8.2V17.8z"/>
	<polygon class="st8" points="117.9,26.6 117.8,25.6 132.2,17.9 132.3,18.1 132.4,18.7 	"/>
</g>
<g>
	<path class="st0" d="M118,13.9c-8.6,0.1-11.4,1.2-12.8,1.8c-1.7,0.7-0.4,3.5-0.4,3.5l12.2,5.5l13.7-7.5L118,13.9z"/>
	<path class="st9" d="M117,23.4c0,0-0.5,1.3-0.1,1.3s13.6-7,13.6-7s0.3-0.5-0.1-0.8c-0.4-0.3-1.6-1-2.6-1.3
		c-2-0.6-11.5,4.8-11.5,4.8L117,23.4z"/>
	<path class="st7" d="M130.1,14.2l-11.8-1.4c-7.5,1.4-11.1,2.5-12.5,3.5c-1.6,1.1,0.3,2.4,0.3,2.4l10.6,4.9l13.3-6.9L130.1,14.2z"/>
	<path class="st6" d="M116.7,23.7l13.4-6.7c-0.2-0.8,0.2-2.5-0.1-2.9l-2.2,0.3c-1.5,0.4-11.2,3.5-11.5,4.4
		C116.3,18.8,117.3,21.4,116.7,23.7C116.7,23.6,116.7,23.6,116.7,23.7z"/>
	<path class="st0" d="M130.2,13.2l-11.4-2.9c-0.5,0-13.8,5.5-13.8,5.5l0.6,0.2l11.5,4.1l13.2-6.2L130.2,13.2z"/>
	<polygon class="st9" points="117,20.1 116.9,19.1 130.2,13.2 130.3,13.5 130.4,14 	"/>
</g>
<g>
	<path class="st10" d="M117.1,9.5c8.1-0.3,10.9,0.7,12.2,1.2c1.7,0.6,0.4,3.4,0.4,3.4l-11.4,6l-13-6.7L117.1,9.5z"/>
	<path class="st3" d="M118.3,18.8c0,0,0.5,1.2,0.1,1.3c-0.4,0.1-13-6.2-13-6.2s-0.3-0.5,0.1-0.8c0.4-0.4,1.4-1.1,2.4-1.5
		c1.9-0.7,11,4.2,11,4.2L118.3,18.8z"/>
	<path class="st6" d="M105.8,10.4l11-2c7.1,1.1,10.5,2,11.9,2.9c1.5,1-0.2,2.4-0.2,2.4l-9.8,5.3L106,12.9L105.8,10.4z"/>
	<path class="st7" d="M118.6,19.1l-12.8-6c0.2-0.8-0.2-2.5-0.1-2.9l2,0.1c1.5,0.4,10.6,2.9,11,3.8c0,0-0.9,2.6-0.2,4.8
		C118.6,19,118.6,19.1,118.6,19.1z"/>
	<path class="st10" d="M105.5,9.4L116.2,6c0.5,0,13.2,4.8,13.2,4.8l-0.5,0.2l-10.6,4.6L105.6,10L105.5,9.4z"/>
	<polygon class="st3" points="118.2,15.5 118.3,14.6 105.5,9.4 105.5,9.7 105.4,10.2 	"/>
</g>
<g>
	<path class="st11" d="M117.8,4.3c8.1,0,10.8,1.1,12.1,1.7c1.6,0.7,0.3,3.5,0.3,3.5l-11.5,5.9L106,7.9L117.8,4.3z"/>
	<path class="st1" d="M118.6,14c0,0,0.4,1.3,0.1,1.3c-0.4,0.1-12.7-6.9-12.7-6.9s-0.3-0.5,0.1-0.8s1.5-1.1,2.5-1.4
		c1.9-0.7,10.8,4.8,10.8,4.8L118.6,14z"/>
	<path class="st6" d="M106.5,4.8l11.1-1.6c7,1.4,10.4,2.5,11.7,3.5c1.4,1.1-0.3,2.5-0.3,2.5L118.7,14l-12.2-6.6V4.8z"/>
	<path class="st7" d="M118.7,14l-12.4-6.6c0.2-0.8,0-2.4,0.2-2.9h1.8c1.4,0.4,10.5,3.4,10.8,4.3c0,0-1,2.7-0.4,5
		C118.7,14,118.7,14,118.7,14z"/>
	<path class="st11" d="M106.3,3.7L117.1,0c0.5,0,12.9,6,12.9,6l-0.5,0.2l-10.8,4.3l-12.4-6.2L106.3,3.7z"/>
	<polygon class="st1" points="118.7,10.6 118.8,9.6 106.2,3.7 106.2,3.9 106.2,4.6 	"/>
</g>
<path class="st12" d="M121.3,3.5c-0.3-0.1-3.9-2-3.9-2l-6.6,2.4l4.3,1.8L121.3,3.5z"/>
<path class="st13" d="M110.1,18.9c-0.1,0-1.1,0.6-1.4,0.9s-0.5,0.4-0.5,0.4l-1.4-0.8c0,0,1.5-1.1,1.7-1.2
	C108.5,18.2,110.1,18.9,110.1,18.9z"/>
</svg>
