<?xml version="1.0" encoding="utf-8"?>
<!-- Generator: Adobe Illustrator 25.1.0, SVG Export Plug-In . SVG Version: 6.00 Build 0)  -->
<svg version="1.1" id="圖層_1" xmlns="http://www.w3.org/2000/svg" xmlns:xlink="http://www.w3.org/1999/xlink" x="0px" y="0px"
	 viewBox="0 0 184.2 29.1" style="enable-background:new 0 0 184.2 29.1;" xml:space="preserve">
<style type="text/css">
	.st0{opacity:0.59;fill:url(#SVGID_1_);}
	.st1{opacity:0.59;fill:url(#SVGID_2_);}
	.st2{opacity:0.59;fill:url(#SVGID_3_);}
	.st3{fill:#666666;}
	.st4{opacity:0.59;}
	.st5{fill:url(#SVGID_4_);}
	.st6{fill-rule:evenodd;clip-rule:evenodd;fill:#40484C;}
	.st7{fill-rule:evenodd;clip-rule:evenodd;fill:#FBC800;}
	.st8{fill-rule:evenodd;clip-rule:evenodd;fill:#C09900;}
	.st9{fill-rule:evenodd;clip-rule:evenodd;fill:#6B777E;}
	.st10{fill-rule:evenodd;clip-rule:evenodd;fill:#242A2D;}
	.st11{fill:#6B777E;}
	.st12{fill-rule:evenodd;clip-rule:evenodd;fill:#92A2AB;}
	.st13{opacity:0.16;}
	.st14{fill:url(#SVGID_5_);}
	.st15{fill:url(#SVGID_6_);}
	.st16{opacity:0.63;fill:url(#SVGID_7_);}
	.st17{opacity:0.4;}
	.st18{fill:url(#SVGID_8_);}
	.st19{fill:url(#SVGID_9_);}
	.st20{opacity:0.63;fill:url(#SVGID_10_);}
	.st21{opacity:0.59;fill:url(#SVGID_11_);}
	.st22{opacity:0.59;fill:url(#SVGID_12_);}
	.st23{opacity:0.59;fill:url(#SVGID_13_);}
	.st24{opacity:0.38;fill:url(#SVGID_14_);}
	.st25{opacity:0.38;fill:url(#SVGID_15_);}
	.st26{opacity:0.38;fill:url(#SVGID_16_);}
	.st27{opacity:0.23;fill:url(#SVGID_17_);}
	.st28{opacity:0.41;fill:#00A0E9;}
	.st29{opacity:0.41;fill:#036EB8;}
	.st30{fill:url(#SVGID_18_);}
	.st31{fill:url(#SVGID_19_);stroke:url(#SVGID_20_);stroke-miterlimit:10;}
	.st32{fill:url(#SVGID_21_);}
	.st33{fill:url(#SVGID_22_);}
	.st34{opacity:0.63;fill:url(#SVGID_23_);}
	.st35{fill:url(#SVGID_24_);}
	.st36{fill:url(#SVGID_25_);}
	.st37{opacity:0.63;fill:url(#SVGID_26_);}
	.st38{opacity:0.59;fill:url(#SVGID_27_);}
	.st39{opacity:0.59;fill:url(#SVGID_28_);}
	.st40{opacity:0.59;fill:url(#SVGID_29_);}
	.st41{opacity:0.38;fill:url(#SVGID_30_);}
	.st42{opacity:0.38;fill:url(#SVGID_31_);}
	.st43{opacity:0.38;fill:url(#SVGID_32_);}
	.st44{opacity:0.23;fill:url(#SVGID_33_);}
	.st45{fill:url(#SVGID_34_);}
	.st46{fill:url(#SVGID_35_);stroke:url(#SVGID_36_);stroke-miterlimit:10;}
	.st47{fill:url(#SVGID_37_);}
	.st48{fill:url(#SVGID_38_);}
	.st49{opacity:0.63;fill:url(#SVGID_39_);}
	.st50{fill:url(#SVGID_40_);}
	.st51{fill:url(#SVGID_41_);}
	.st52{opacity:0.63;fill:url(#SVGID_42_);}
	.st53{opacity:0.59;fill:url(#SVGID_43_);}
	.st54{opacity:0.59;fill:url(#SVGID_44_);}
	.st55{opacity:0.59;fill:url(#SVGID_45_);}
	.st56{opacity:0.38;fill:url(#SVGID_46_);}
	.st57{opacity:0.38;fill:url(#SVGID_47_);}
	.st58{opacity:0.38;fill:url(#SVGID_48_);}
	.st59{opacity:0.23;fill:url(#SVGID_49_);}
	.st60{fill:url(#SVGID_50_);}
	.st61{fill:url(#SVGID_51_);stroke:url(#SVGID_52_);stroke-miterlimit:10;}
	.st62{opacity:0.59;fill:url(#SVGID_53_);}
</style>
<linearGradient id="SVGID_1_" gradientUnits="userSpaceOnUse" x1="0" y1="16.2" x2="19.2603" y2="16.2">
	<stop  offset="0" style="stop-color:#00A29A"/>
	<stop  offset="1" style="stop-color:#00A0E9"/>
</linearGradient>
<path class="st0" d="M18.3,15.7c-0.7,1.2-1.7,2.2-3.1,2.9c-1.4,0.7-3.1,1.1-5.2,1.1H6.2v9.1H0V3.6h10c2,0,3.7,0.3,5.1,1
	c1.4,0.7,2.4,1.7,3.1,2.9c0.7,1.2,1,2.6,1,4.2C19.3,13.2,18.9,14.5,18.3,15.7z M12.1,14c0.6-0.6,0.9-1.3,0.9-2.3
	c0-1-0.3-1.8-0.9-2.3c-0.6-0.6-1.5-0.8-2.6-0.8H6.2v6.3h3.3C10.7,14.9,11.6,14.6,12.1,14z"/>
<linearGradient id="SVGID_2_" gradientUnits="userSpaceOnUse" x1="48.7437" y1="16.2" x2="71.46" y2="16.2">
	<stop  offset="0" style="stop-color:#00A29A"/>
	<stop  offset="1" style="stop-color:#00A0E9"/>
</linearGradient>
<path class="st1" d="M65.2,5.1c2,1.1,3.5,2.5,4.6,4.4c1.1,1.9,1.6,4.1,1.6,6.6c0,2.5-0.5,4.7-1.6,6.6c-1.1,1.9-2.6,3.4-4.6,4.5
	c-2,1.1-4.3,1.6-7,1.6h-9.5V3.6h9.5C60.9,3.6,63.2,4.1,65.2,5.1z M63.3,21.6c1.3-1.3,1.9-3.1,1.9-5.4c0-2.3-0.6-4.1-1.9-5.4
	c-1.3-1.3-3.1-1.9-5.4-1.9h-2.9v14.7h2.9C60.1,23.5,62,22.9,63.3,21.6z"/>
<linearGradient id="SVGID_3_" gradientUnits="userSpaceOnUse" x1="103.8223" y1="16.2" x2="123.9824" y2="16.2">
	<stop  offset="0" style="stop-color:#00A29A"/>
	<stop  offset="1" style="stop-color:#00A0E9"/>
</linearGradient>
<path class="st2" d="M122.7,18.1c0.9,1.1,1.3,2.4,1.3,3.9c0,2.1-0.7,3.8-2.2,5c-1.5,1.2-3.5,1.9-6.2,1.9h-11.8V3.6h11.4
	c2.6,0,4.6,0.6,6,1.8c1.5,1.2,2.2,2.8,2.2,4.8c0,1.5-0.4,2.7-1.2,3.7c-0.8,1-1.8,1.7-3.1,2.1C120.6,16.2,121.8,16.9,122.7,18.1z
	 M110,13.8h4c1,0,1.8-0.2,2.3-0.7c0.5-0.4,0.8-1.1,0.8-2c0-0.9-0.3-1.5-0.8-2S115,8.5,114,8.5h-4V13.8z M116.9,23.2
	c0.6-0.5,0.8-1.1,0.8-2c0-0.9-0.3-1.6-0.9-2.1c-0.6-0.5-1.4-0.8-2.4-0.8H110v5.6h4.5C115.5,23.9,116.3,23.6,116.9,23.2z"/>
<path class="st3" d="M141.3,24.1h8.1v4.8h-14.2V3.6h6.2V24.1z"/>
<path class="st3" d="M171.6,9.3c1.1-0.6,2.3-0.9,3.7-0.9c1.7,0,3.2,0.4,4.5,1.3c1.3,0.8,2.4,2,3.2,3.6c0.8,1.6,1.2,3.4,1.2,5.4
	c0,2.1-0.4,3.9-1.2,5.5c-0.8,1.6-1.8,2.8-3.2,3.6c-1.3,0.9-2.8,1.3-4.5,1.3c-1.4,0-2.7-0.3-3.7-0.8c-1.1-0.6-1.9-1.3-2.5-2.2v2.8
	H163V2.2h6.2v9.4C169.7,10.7,170.5,9.9,171.6,9.3z M176.6,15.1c-0.9-0.9-1.9-1.3-3.1-1.3c-1.2,0-2.3,0.4-3.1,1.3
	c-0.9,0.9-1.3,2.1-1.3,3.6c0,1.5,0.4,2.7,1.3,3.6c0.9,0.9,1.9,1.3,3.1,1.3c1.2,0,2.3-0.4,3.1-1.3c0.9-0.9,1.3-2.1,1.3-3.7
	C177.9,17.2,177.5,16,176.6,15.1z"/>
<g class="st4">
	<linearGradient id="SVGID_4_" gradientUnits="userSpaceOnUse" x1="69.8851" y1="27.6146" x2="85.312" y2="27.6146">
		<stop  offset="0" style="stop-color:#00A29A"/>
		<stop  offset="1" style="stop-color:#00A0E9"/>
	</linearGradient>
	<ellipse class="st5" cx="77.6" cy="27.6" rx="7.7" ry="0.8"/>
</g>
<g>
	<path class="st6" d="M151.3,4h7.7c0.3,0,0.6,0.3,0.6,0.6v4.4c0,0.3-0.3,0.5-0.6,0.5h-7.7c-0.3,0-0.5-0.2-0.5-0.5V4.5
		C150.8,4.2,151,4,151.3,4L151.3,4z"/>
	<path class="st7" d="M152,4.7h6.4c0.2,0,0.3,0.2,0.3,0.3v3.4c0,0.2-0.1,0.3-0.3,0.3H152c-0.2,0-0.3-0.1-0.3-0.3V5
		C151.7,4.8,151.8,4.7,152,4.7L152,4.7z"/>
	<path class="st8" d="M158.7,6.6V7c-1.6,0.9-2.5,0.4-3.5-0.1c-0.9-0.5-1.8-1-3.6,0V6.5c1.8-0.9,2.8-0.4,3.7,0.1
		C156.3,7,157.1,7.5,158.7,6.6L158.7,6.6z"/>
	<rect x="150.4" y="5.3" class="st9" width="0.4" height="2.7"/>
	<rect x="159.6" y="5.3" class="st9" width="0.4" height="2.7"/>
	<rect x="151.9" y="3.6" class="st9" width="6.6" height="0.4"/>
	<rect x="152.3" y="9.5" class="st9" width="5.8" height="0.3"/>
	<path class="st6" d="M151.5,18.8h7.3c0.8,0,1.5-0.7,1.5-1.5v-7.2c0-0.2-0.1-0.3-0.3-0.3h-9.7c-0.2,0-0.3,0.1-0.3,0.3v7.2
		C150,18.1,150.7,18.8,151.5,18.8L151.5,18.8z"/>
	<path class="st10" d="M151.5,18.8h7.3c0.7,0,1.2-0.4,1.4-1c-1.2-0.7-3-1.1-5.1-1.1c-2.1,0-3.9,0.4-5.1,1.1
		C150.3,18.4,150.9,18.8,151.5,18.8L151.5,18.8z"/>
	<polygon class="st9" points="147.5,28.9 151,28.9 151,27 147.5,28.2 	"/>
	<path class="st11" d="M153.9,18.8l-1.9,4.7V28h-1.9v-4.6v-0.2l0.1-0.2l1.7-4.2c0,0,0,0,0.1,0H153.9z"/>
	<path class="st6" d="M151.2,21.5c0.9,0,1.5,0.7,1.5,1.5c0,0.9-0.7,1.5-1.5,1.5c-0.8,0-1.5-0.7-1.5-1.5
		C149.7,22.2,150.4,21.5,151.2,21.5L151.2,21.5z"/>
	<path class="st12" d="M151.2,22.4c0.4,0,0.7,0.3,0.7,0.7c0,0.4-0.3,0.7-0.7,0.7c-0.4,0-0.7-0.3-0.7-0.7
		C150.5,22.7,150.8,22.4,151.2,22.4L151.2,22.4z"/>
	<path class="st6" d="M152.7,28.9v-0.6c0-0.9-0.7-1.6-1.6-1.6l0,0c-0.9,0-1.6,0.7-1.6,1.6v0.6H152.7z"/>
	<polygon class="st9" points="162.9,28.9 159.4,28.9 159.4,27 162.9,28.2 	"/>
	<path class="st11" d="M156.5,18.8l1.9,4.7V28h1.9v-4.6v-0.2l-0.1-0.2l-1.7-4.2c0,0,0,0,0,0H156.5z"/>
	<path class="st6" d="M159.1,21.5c-0.8,0-1.5,0.7-1.5,1.5c0,0.9,0.7,1.5,1.5,1.5c0.9,0,1.5-0.7,1.5-1.5
		C160.7,22.2,160,21.5,159.1,21.5L159.1,21.5z"/>
	<path class="st12" d="M159.1,22.4c-0.4,0-0.7,0.3-0.7,0.7c0,0.4,0.3,0.7,0.7,0.7c0.4,0,0.7-0.3,0.7-0.7
		C159.8,22.7,159.5,22.4,159.1,22.4L159.1,22.4z"/>
	<path class="st6" d="M157.7,28.9v-0.6c0-0.9,0.7-1.6,1.6-1.6l0,0c0.9,0,1.6,0.7,1.6,1.6v0.6H157.7z"/>
	<polygon class="st9" points="146.3,18.8 146.9,19.1 146,21.2 145.4,21 	"/>
	<polygon class="st9" points="147,19 147.7,19.1 147.5,21.4 146.8,21.3 	"/>
	<polygon class="st9" points="147.7,19 148.3,18.6 149.3,20.7 148.7,21 	"/>
	<polygon class="st11" points="150,11.8 147.1,13.6 148.4,19.1 147.1,19.4 145.6,13.5 145.5,13 145.9,12.7 150,10.1 	"/>
	<path class="st6" d="M146.4,11.9c0.9,0,1.5,0.7,1.5,1.5c0,0.9-0.7,1.5-1.5,1.5c-0.8,0-1.5-0.7-1.5-1.5
		C144.9,12.6,145.6,11.9,146.4,11.9L146.4,11.9z"/>
	<path class="st12" d="M146.4,12.8c0.4,0,0.7,0.3,0.7,0.7c0,0.4-0.3,0.7-0.7,0.7c-0.4,0-0.7-0.3-0.7-0.7
		C145.8,13.1,146.1,12.8,146.4,12.8L146.4,12.8z"/>
	<path class="st6" d="M147.3,16.9c0.9,0,1.5,0.7,1.5,1.5c0,0.9-0.7,1.5-1.5,1.5c-0.9,0-1.5-0.7-1.5-1.5
		C145.8,17.6,146.5,16.9,147.3,16.9L147.3,16.9z"/>
	<path class="st12" d="M147.3,17.7c0.4,0,0.7,0.3,0.7,0.7c0,0.4-0.3,0.7-0.7,0.7c-0.4,0-0.7-0.3-0.7-0.7
		C146.7,18,147,17.7,147.3,17.7L147.3,17.7z"/>
	<path class="st10" d="M151.8,10.9h6.8c0.1,0,0.2,0.1,0.2,0.2v3.4c0,0.1-0.1,0.1-0.2,0.1h-6.8c-0.1,0-0.1-0.1-0.1-0.1v-3.4
		C151.6,11,151.7,10.9,151.8,10.9L151.8,10.9z"/>
	<polygon class="st9" points="164.1,18.8 163.4,19.1 164.4,21.2 165,21 	"/>
	<polygon class="st9" points="163.3,19 162.7,19.1 162.8,21.4 163.5,21.3 	"/>
	<polygon class="st9" points="162.6,19 162,18.6 161,20.7 161.6,21 	"/>
	<polygon class="st11" points="160.3,11.8 163.3,13.6 161.9,19.1 163.3,19.4 164.7,13.5 164.9,13 164.4,12.7 160.3,10.1 	"/>
	<path class="st6" d="M163.9,11.9c-0.8,0-1.5,0.7-1.5,1.5c0,0.9,0.7,1.5,1.5,1.5c0.9,0,1.5-0.7,1.5-1.5
		C165.4,12.6,164.8,11.9,163.9,11.9L163.9,11.9z"/>
	<path class="st12" d="M163.9,12.8c-0.4,0-0.7,0.3-0.7,0.7c0,0.4,0.3,0.7,0.7,0.7c0.4,0,0.7-0.3,0.7-0.7
		C164.6,13.1,164.3,12.8,163.9,12.8L163.9,12.8z"/>
	<path class="st6" d="M163,16.9c-0.8,0-1.5,0.7-1.5,1.5c0,0.9,0.7,1.5,1.5,1.5c0.9,0,1.5-0.7,1.5-1.5
		C164.5,17.6,163.8,16.9,163,16.9L163,16.9z"/>
	<path class="st12" d="M163,17.7c-0.4,0-0.7,0.3-0.7,0.7c0,0.4,0.3,0.7,0.7,0.7c0.4,0,0.7-0.3,0.7-0.7C163.7,18,163.4,17.7,163,17.7
		L163,17.7z"/>
</g>
<g>
	<g>
		<g class="st13">
			<linearGradient id="SVGID_5_" gradientUnits="userSpaceOnUse" x1="37.6609" y1="14.0482" x2="40.2727" y2="14.0482">
				<stop  offset="0" style="stop-color:#00A29A"/>
				<stop  offset="1" style="stop-color:#00A0E9"/>
			</linearGradient>
			<polygon class="st14" points="37.7,10 40.3,11.5 40.3,18.1 37.7,16.6 			"/>
			<linearGradient id="SVGID_6_" gradientUnits="userSpaceOnUse" x1="40.2771" y1="14.0413" x2="42.8889" y2="14.0413">
				<stop  offset="0" style="stop-color:#00A29A"/>
				<stop  offset="1" style="stop-color:#00A0E9"/>
			</linearGradient>
			<polygon class="st15" points="42.9,10 40.3,11.5 40.3,18.1 42.9,16.6 			"/>
			<linearGradient id="SVGID_7_" gradientUnits="userSpaceOnUse" x1="37.6606" y1="9.9887" x2="42.8848" y2="9.9887">
				<stop  offset="0" style="stop-color:#172A88"/>
				<stop  offset="1" style="stop-color:#00A0E9"/>
			</linearGradient>
			<path class="st16" d="M40.2,8.4l-2.5,1.4c-0.1,0.1-0.1,0.2,0,0.3l2.5,1.4c0.1,0,0.1,0,0.2,0l2.4-1.4c0.1-0.1,0.1-0.2,0-0.3
				l-2.4-1.4C40.3,8.4,40.2,8.4,40.2,8.4z"/>
		</g>
		<g class="st17">
			<linearGradient id="SVGID_8_" gradientUnits="userSpaceOnUse" x1="36.798" y1="13.4816" x2="40.2793" y2="13.4816">
				<stop  offset="0" style="stop-color:#00A29A"/>
				<stop  offset="1" style="stop-color:#00A0E9"/>
			</linearGradient>
			<polygon class="st18" points="36.8,8.1 40.3,10.1 40.3,18.9 36.8,16.9 			"/>
			<linearGradient id="SVGID_9_" gradientUnits="userSpaceOnUse" x1="40.2853" y1="13.4725" x2="43.7666" y2="13.4725">
				<stop  offset="0" style="stop-color:#00A29A"/>
				<stop  offset="1" style="stop-color:#00A0E9"/>
			</linearGradient>
			<polygon class="st19" points="43.8,8.1 40.3,10.1 40.3,18.9 43.8,16.9 			"/>
			<linearGradient id="SVGID_10_" gradientUnits="userSpaceOnUse" x1="36.7976" y1="8.0706" x2="43.7611" y2="8.0706">
				<stop  offset="0" style="stop-color:#172A88"/>
				<stop  offset="1" style="stop-color:#00A0E9"/>
			</linearGradient>
			<path class="st20" d="M40.2,6l-3.3,1.9c-0.1,0.1-0.1,0.3,0,0.4l3.3,1.9c0.1,0,0.2,0,0.2,0l3.3-1.9c0.1-0.1,0.1-0.3,0-0.4L40.4,6
				C40.3,5.9,40.2,5.9,40.2,6z"/>
		</g>
		<linearGradient id="SVGID_11_" gradientUnits="userSpaceOnUse" x1="35.9727" y1="13.2328" x2="40.2747" y2="13.2328">
			<stop  offset="0" style="stop-color:#00A29A"/>
			<stop  offset="1" style="stop-color:#00A0E9"/>
		</linearGradient>
		<polygon class="st21" points="36,6.6 40.3,9.1 40.3,19.9 36,17.4 		"/>
		<linearGradient id="SVGID_12_" gradientUnits="userSpaceOnUse" x1="40.2821" y1="13.2215" x2="44.5842" y2="13.2215">
			<stop  offset="0" style="stop-color:#00A29A"/>
			<stop  offset="1" style="stop-color:#00A0E9"/>
		</linearGradient>
		<polygon class="st22" points="44.6,6.6 40.3,9.1 40.3,19.9 44.6,17.4 		"/>
		<linearGradient id="SVGID_13_" gradientUnits="userSpaceOnUse" x1="35.9721" y1="6.5461" x2="44.5774" y2="6.5461">
			<stop  offset="0" style="stop-color:#172A88"/>
			<stop  offset="1" style="stop-color:#00A0E9"/>
		</linearGradient>
		<path class="st23" d="M40.2,3.9l-4,2.4c-0.2,0.1-0.2,0.4,0,0.5l4,2.4c0.1,0,0.2,0,0.3,0l4-2.4c0.2-0.1,0.2-0.4,0-0.5l-4-2.4
			C40.3,3.9,40.2,3.9,40.2,3.9z"/>
		<linearGradient id="SVGID_14_" gradientUnits="userSpaceOnUse" x1="35.9701" y1="6.1221" x2="44.5753" y2="6.1221">
			<stop  offset="0" style="stop-color:#172A88"/>
			<stop  offset="1" style="stop-color:#00A0E9"/>
		</linearGradient>
		<path class="st24" d="M40.1,3.5l-4,2.4c-0.2,0.1-0.2,0.4,0,0.5l4,2.4c0.1,0,0.2,0,0.3,0l4-2.4c0.2-0.1,0.2-0.4,0-0.5l-4-2.4
			C40.3,3.5,40.2,3.5,40.1,3.5z"/>
		<linearGradient id="SVGID_15_" gradientUnits="userSpaceOnUse" x1="38.9623" y1="6.1221" x2="41.583" y2="6.1221">
			<stop  offset="0" style="stop-color:#00A0E9"/>
			<stop  offset="1" style="stop-color:#00A29A"/>
		</linearGradient>
		<path class="st25" d="M40.2,5.3L39,6c-0.1,0-0.1,0.1,0,0.1l1.2,0.7c0,0,0.1,0,0.1,0l1.2-0.7c0.1,0,0.1-0.1,0-0.1L40.2,5.3
			C40.3,5.3,40.3,5.3,40.2,5.3z"/>
		<linearGradient id="SVGID_16_" gradientUnits="userSpaceOnUse" x1="39.4343" y1="6.4052" x2="41.1363" y2="6.4052">
			<stop  offset="0" style="stop-color:#00A0E9"/>
			<stop  offset="1" style="stop-color:#00A29A"/>
		</linearGradient>
		<path class="st26" d="M40.3,5.9l-0.8,0.5c0,0,0,0.1,0,0.1l0.8,0.5c0,0,0,0,0.1,0l0.8-0.5c0,0,0-0.1,0-0.1L40.3,5.9
			C40.3,5.9,40.3,5.9,40.3,5.9z"/>
		<linearGradient id="SVGID_17_" gradientUnits="userSpaceOnUse" x1="40.2728" y1="6.9467" x2="40.2728" y2="0.158">
			<stop  offset="0" style="stop-color:#00A0E9"/>
			<stop  offset="1" style="stop-color:#00A29A;stop-opacity:0"/>
		</linearGradient>
		<polygon class="st27" points="39,0.2 39,6.1 40.3,6.9 41.6,6.2 41.5,0.2 		"/>
		<polygon class="st28" points="36.8,9.8 36.8,13.1 37.7,13.7 37.7,10.4 		"/>
		<polygon class="st28" points="36.8,13.3 36.8,14.5 37.7,15 37.7,13.8 		"/>
		<polygon class="st28" points="39.4,13.7 39.4,17 40.3,17.5 40.3,14.3 		"/>
		<polygon class="st28" points="39.4,17.2 39.4,18.4 40.3,18.9 40.3,17.7 		"/>
		<polygon class="st28" points="43.8,9.5 43.8,12.8 42.9,13.4 42.9,10.1 		"/>
		<polygon class="st28" points="43.8,13 43.8,14.2 42.9,14.7 42.9,13.5 		"/>
		<polygon class="st29" points="41.2,13.7 41.2,17 40.3,17.5 40.3,14.3 		"/>
		<polygon class="st29" points="41.2,17.2 41.2,18.4 40.3,18.9 40.3,17.7 		"/>
		<linearGradient id="SVGID_18_" gradientUnits="userSpaceOnUse" x1="42.0351" y1="17.36" x2="44.9085" y2="24.1943">
			<stop  offset="0" style="stop-color:#00A0E9"/>
			<stop  offset="1" style="stop-color:#00A29A;stop-opacity:0"/>
		</linearGradient>
		<polygon class="st30" points="40.3,19.9 40.3,24.2 47.6,19.7 44.6,17.4 		"/>
		<linearGradient id="SVGID_19_" gradientUnits="userSpaceOnUse" x1="35.6245" y1="23.6518" x2="38.9198" y2="18.3652">
			<stop  offset="0" style="stop-color:#00A0E9"/>
			<stop  offset="1" style="stop-color:#00A29A;stop-opacity:0"/>
		</linearGradient>
		<linearGradient id="SVGID_20_" gradientUnits="userSpaceOnUse" x1="32.1198" y1="20.9278" x2="40.7864" y2="20.9278">
			<stop  offset="0" style="stop-color:#00A0E9"/>
			<stop  offset="1" style="stop-color:#00A29A"/>
		</linearGradient>
		<polygon class="st31" points="40.3,19.9 40.3,24.2 33,19.9 36,17.4 		"/>
	</g>
	<g>
		<g class="st13">
			<linearGradient id="SVGID_21_" gradientUnits="userSpaceOnUse" x1="23.0067" y1="14.0482" x2="25.6185" y2="14.0482">
				<stop  offset="0" style="stop-color:#00A29A"/>
				<stop  offset="1" style="stop-color:#00A0E9"/>
			</linearGradient>
			<polygon class="st32" points="23,10 25.6,11.5 25.6,18.1 23,16.6 			"/>
			<linearGradient id="SVGID_22_" gradientUnits="userSpaceOnUse" x1="25.6229" y1="14.0413" x2="28.2347" y2="14.0413">
				<stop  offset="0" style="stop-color:#00A29A"/>
				<stop  offset="1" style="stop-color:#00A0E9"/>
			</linearGradient>
			<polygon class="st33" points="28.2,10 25.6,11.5 25.6,18.1 28.2,16.6 			"/>
			<linearGradient id="SVGID_23_" gradientUnits="userSpaceOnUse" x1="23.0063" y1="9.9887" x2="28.2306" y2="9.9887">
				<stop  offset="0" style="stop-color:#172A88"/>
				<stop  offset="1" style="stop-color:#00A0E9"/>
			</linearGradient>
			<path class="st34" d="M25.5,8.4l-2.5,1.4c-0.1,0.1-0.1,0.2,0,0.3l2.5,1.4c0.1,0,0.1,0,0.2,0l2.4-1.4c0.1-0.1,0.1-0.2,0-0.3
				l-2.4-1.4C25.7,8.4,25.6,8.4,25.5,8.4z"/>
		</g>
		<g class="st17">
			<linearGradient id="SVGID_24_" gradientUnits="userSpaceOnUse" x1="22.1438" y1="13.4816" x2="25.6251" y2="13.4816">
				<stop  offset="0" style="stop-color:#00A29A"/>
				<stop  offset="1" style="stop-color:#00A0E9"/>
			</linearGradient>
			<polygon class="st35" points="22.1,8.1 25.6,10.1 25.6,18.9 22.1,16.9 			"/>
			<linearGradient id="SVGID_25_" gradientUnits="userSpaceOnUse" x1="25.6311" y1="13.4725" x2="29.1124" y2="13.4725">
				<stop  offset="0" style="stop-color:#00A29A"/>
				<stop  offset="1" style="stop-color:#00A0E9"/>
			</linearGradient>
			<polygon class="st36" points="29.1,8.1 25.6,10.1 25.6,18.9 29.1,16.9 			"/>
			<linearGradient id="SVGID_26_" gradientUnits="userSpaceOnUse" x1="22.1434" y1="8.0706" x2="29.1069" y2="8.0706">
				<stop  offset="0" style="stop-color:#172A88"/>
				<stop  offset="1" style="stop-color:#00A0E9"/>
			</linearGradient>
			<path class="st37" d="M25.5,6l-3.3,1.9c-0.1,0.1-0.1,0.3,0,0.4l3.3,1.9c0.1,0,0.2,0,0.2,0L29,8.3c0.1-0.1,0.1-0.3,0-0.4L25.7,6
				C25.7,5.9,25.6,5.9,25.5,6z"/>
		</g>
		<linearGradient id="SVGID_27_" gradientUnits="userSpaceOnUse" x1="21.3184" y1="13.2328" x2="25.6205" y2="13.2328">
			<stop  offset="0" style="stop-color:#00A29A"/>
			<stop  offset="1" style="stop-color:#00A0E9"/>
		</linearGradient>
		<polygon class="st38" points="21.3,6.6 25.6,9.1 25.6,19.9 21.3,17.4 		"/>
		<linearGradient id="SVGID_28_" gradientUnits="userSpaceOnUse" x1="25.6279" y1="13.2215" x2="29.9299" y2="13.2215">
			<stop  offset="0" style="stop-color:#00A29A"/>
			<stop  offset="1" style="stop-color:#00A0E9"/>
		</linearGradient>
		<polygon class="st39" points="29.9,6.6 25.6,9.1 25.6,19.9 29.9,17.4 		"/>
		<linearGradient id="SVGID_29_" gradientUnits="userSpaceOnUse" x1="21.3179" y1="6.5461" x2="29.9231" y2="6.5461">
			<stop  offset="0" style="stop-color:#172A88"/>
			<stop  offset="1" style="stop-color:#00A0E9"/>
		</linearGradient>
		<path class="st40" d="M25.5,3.9l-4,2.4c-0.2,0.1-0.2,0.4,0,0.5l4,2.4c0.1,0,0.2,0,0.3,0l4-2.4c0.2-0.1,0.2-0.4,0-0.5l-4-2.4
			C25.7,3.9,25.6,3.9,25.5,3.9z"/>
		<linearGradient id="SVGID_30_" gradientUnits="userSpaceOnUse" x1="21.3158" y1="6.1221" x2="29.9211" y2="6.1221">
			<stop  offset="0" style="stop-color:#172A88"/>
			<stop  offset="1" style="stop-color:#00A0E9"/>
		</linearGradient>
		<path class="st41" d="M25.5,3.5l-4,2.4c-0.2,0.1-0.2,0.4,0,0.5l4,2.4c0.1,0,0.2,0,0.3,0l4-2.4C30,6.3,30,6,29.8,5.9l-4-2.4
			C25.7,3.5,25.6,3.5,25.5,3.5z"/>
		<linearGradient id="SVGID_31_" gradientUnits="userSpaceOnUse" x1="24.3081" y1="6.1221" x2="26.9288" y2="6.1221">
			<stop  offset="0" style="stop-color:#00A0E9"/>
			<stop  offset="1" style="stop-color:#00A29A"/>
		</linearGradient>
		<path class="st42" d="M25.6,5.3L24.3,6c-0.1,0-0.1,0.1,0,0.1l1.2,0.7c0,0,0.1,0,0.1,0l1.2-0.7c0.1,0,0.1-0.1,0-0.1L25.6,5.3
			C25.6,5.3,25.6,5.3,25.6,5.3z"/>
		<linearGradient id="SVGID_32_" gradientUnits="userSpaceOnUse" x1="24.7801" y1="6.4052" x2="26.4821" y2="6.4052">
			<stop  offset="0" style="stop-color:#00A0E9"/>
			<stop  offset="1" style="stop-color:#00A29A"/>
		</linearGradient>
		<path class="st43" d="M25.6,5.9l-0.8,0.5c0,0,0,0.1,0,0.1l0.8,0.5c0,0,0,0,0.1,0l0.8-0.5c0,0,0-0.1,0-0.1L25.6,5.9
			C25.6,5.9,25.6,5.9,25.6,5.9z"/>
		<linearGradient id="SVGID_33_" gradientUnits="userSpaceOnUse" x1="25.6186" y1="6.9467" x2="25.6186" y2="0.158">
			<stop  offset="0" style="stop-color:#00A0E9"/>
			<stop  offset="1" style="stop-color:#00A29A;stop-opacity:0"/>
		</linearGradient>
		<polygon class="st44" points="24.3,0.2 24.3,6.1 25.6,6.9 26.9,6.2 26.9,0.2 		"/>
		<polygon class="st28" points="22.1,9.8 22.1,13.1 23,13.7 23,10.4 		"/>
		<polygon class="st28" points="22.1,13.3 22.1,14.5 23,15 23,13.8 		"/>
		<polygon class="st28" points="24.8,13.7 24.8,17 25.6,17.5 25.6,14.3 		"/>
		<polygon class="st28" points="24.8,17.2 24.8,18.4 25.6,18.9 25.6,17.7 		"/>
		<polygon class="st28" points="29.1,9.5 29.1,12.8 28.2,13.4 28.2,10.1 		"/>
		<polygon class="st28" points="29.1,13 29.1,14.2 28.2,14.7 28.2,13.5 		"/>
		<polygon class="st29" points="26.5,13.7 26.5,17 25.6,17.5 25.6,14.3 		"/>
		<polygon class="st29" points="26.5,17.2 26.5,18.4 25.6,18.9 25.6,17.7 		"/>
		<linearGradient id="SVGID_34_" gradientUnits="userSpaceOnUse" x1="27.3809" y1="17.36" x2="30.2542" y2="24.1943">
			<stop  offset="0" style="stop-color:#00A0E9"/>
			<stop  offset="1" style="stop-color:#00A29A;stop-opacity:0"/>
		</linearGradient>
		<polygon class="st45" points="25.6,19.9 25.6,24.2 33,19.7 30,17.4 		"/>
		<linearGradient id="SVGID_35_" gradientUnits="userSpaceOnUse" x1="20.9703" y1="23.6518" x2="24.2656" y2="18.3652">
			<stop  offset="0" style="stop-color:#00A0E9"/>
			<stop  offset="1" style="stop-color:#00A29A;stop-opacity:0"/>
		</linearGradient>
		<linearGradient id="SVGID_36_" gradientUnits="userSpaceOnUse" x1="17.4656" y1="20.9278" x2="26.1322" y2="20.9278">
			<stop  offset="0" style="stop-color:#00A0E9"/>
			<stop  offset="1" style="stop-color:#00A29A"/>
		</linearGradient>
		<polygon class="st46" points="25.6,19.9 25.6,24.2 18.3,19.9 21.3,17.4 		"/>
	</g>
	<g>
		<g class="st13">
			<linearGradient id="SVGID_37_" gradientUnits="userSpaceOnUse" x1="30.3306" y1="18.5456" x2="32.9423" y2="18.5456">
				<stop  offset="0" style="stop-color:#00A29A"/>
				<stop  offset="1" style="stop-color:#00A0E9"/>
			</linearGradient>
			<polygon class="st47" points="30.3,14.5 32.9,16 32.9,22.6 30.3,21.1 			"/>
			<linearGradient id="SVGID_38_" gradientUnits="userSpaceOnUse" x1="32.9468" y1="18.5388" x2="35.5586" y2="18.5388">
				<stop  offset="0" style="stop-color:#00A29A"/>
				<stop  offset="1" style="stop-color:#00A0E9"/>
			</linearGradient>
			<polygon class="st48" points="35.6,14.5 32.9,16 32.9,22.6 35.6,21.1 			"/>
			<linearGradient id="SVGID_39_" gradientUnits="userSpaceOnUse" x1="30.3302" y1="14.4861" x2="35.5544" y2="14.4861">
				<stop  offset="0" style="stop-color:#172A88"/>
				<stop  offset="1" style="stop-color:#00A0E9"/>
			</linearGradient>
			<path class="st49" d="M32.9,12.9l-2.5,1.4c-0.1,0.1-0.1,0.2,0,0.3l2.5,1.4c0.1,0,0.1,0,0.2,0l2.4-1.4c0.1-0.1,0.1-0.2,0-0.3
				L33,12.9C33,12.9,32.9,12.9,32.9,12.9z"/>
		</g>
		<g class="st17">
			<linearGradient id="SVGID_40_" gradientUnits="userSpaceOnUse" x1="29.4677" y1="17.9791" x2="32.949" y2="17.9791">
				<stop  offset="0" style="stop-color:#00A29A"/>
				<stop  offset="1" style="stop-color:#00A0E9"/>
			</linearGradient>
			<polygon class="st50" points="29.5,12.6 32.9,14.6 32.9,23.4 29.5,21.4 			"/>
			<linearGradient id="SVGID_41_" gradientUnits="userSpaceOnUse" x1="32.9549" y1="17.9699" x2="36.4362" y2="17.9699">
				<stop  offset="0" style="stop-color:#00A29A"/>
				<stop  offset="1" style="stop-color:#00A0E9"/>
			</linearGradient>
			<polygon class="st51" points="36.4,12.6 33,14.6 33,23.4 36.4,21.4 			"/>
			<linearGradient id="SVGID_42_" gradientUnits="userSpaceOnUse" x1="29.4672" y1="12.5681" x2="36.4307" y2="12.5681">
				<stop  offset="0" style="stop-color:#172A88"/>
				<stop  offset="1" style="stop-color:#00A0E9"/>
			</linearGradient>
			<path class="st52" d="M32.8,10.5l-3.3,1.9c-0.1,0.1-0.1,0.3,0,0.4l3.3,1.9c0.1,0,0.2,0,0.2,0l3.3-1.9c0.1-0.1,0.1-0.3,0-0.4
				l-3.3-1.9C33,10.4,32.9,10.4,32.8,10.5z"/>
		</g>
		<linearGradient id="SVGID_43_" gradientUnits="userSpaceOnUse" x1="28.6423" y1="17.7303" x2="32.9444" y2="17.7303">
			<stop  offset="0" style="stop-color:#00A29A"/>
			<stop  offset="1" style="stop-color:#00A0E9"/>
		</linearGradient>
		<polygon class="st53" points="28.6,11.1 32.9,13.6 32.9,24.4 28.6,21.9 		"/>
		<linearGradient id="SVGID_44_" gradientUnits="userSpaceOnUse" x1="32.9517" y1="17.719" x2="37.2538" y2="17.719">
			<stop  offset="0" style="stop-color:#00A29A"/>
			<stop  offset="1" style="stop-color:#00A0E9"/>
		</linearGradient>
		<polygon class="st54" points="37.3,11.1 33,13.6 33,24.4 37.3,21.9 		"/>
		<linearGradient id="SVGID_45_" gradientUnits="userSpaceOnUse" x1="28.6418" y1="11.0436" x2="37.247" y2="11.0436">
			<stop  offset="0" style="stop-color:#172A88"/>
			<stop  offset="1" style="stop-color:#00A0E9"/>
		</linearGradient>
		<path class="st55" d="M32.8,8.4l-4,2.4c-0.2,0.1-0.2,0.4,0,0.5l4,2.4c0.1,0,0.2,0,0.3,0l4-2.4c0.2-0.1,0.2-0.4,0-0.5l-4-2.4
			C33,8.4,32.9,8.4,32.8,8.4z"/>
		<linearGradient id="SVGID_46_" gradientUnits="userSpaceOnUse" x1="28.6397" y1="10.6196" x2="37.245" y2="10.6196">
			<stop  offset="0" style="stop-color:#172A88"/>
			<stop  offset="1" style="stop-color:#00A0E9"/>
		</linearGradient>
		<path class="st56" d="M32.8,8l-4,2.4c-0.2,0.1-0.2,0.4,0,0.5l4,2.4c0.1,0,0.2,0,0.3,0l4-2.4c0.2-0.1,0.2-0.4,0-0.5l-4-2.4
			C33,8,32.9,8,32.8,8z"/>
		<linearGradient id="SVGID_47_" gradientUnits="userSpaceOnUse" x1="31.632" y1="10.6196" x2="34.2527" y2="10.6196">
			<stop  offset="0" style="stop-color:#00A0E9"/>
			<stop  offset="1" style="stop-color:#00A29A"/>
		</linearGradient>
		<path class="st57" d="M32.9,9.8l-1.2,0.7c-0.1,0-0.1,0.1,0,0.1l1.2,0.7c0,0,0.1,0,0.1,0l1.2-0.7c0.1,0,0.1-0.1,0-0.1L32.9,9.8
			C33,9.8,32.9,9.8,32.9,9.8z"/>
		<linearGradient id="SVGID_48_" gradientUnits="userSpaceOnUse" x1="32.1039" y1="10.9027" x2="33.8059" y2="10.9027">
			<stop  offset="0" style="stop-color:#00A0E9"/>
			<stop  offset="1" style="stop-color:#00A29A"/>
		</linearGradient>
		<path class="st58" d="M32.9,10.4l-0.8,0.5c0,0,0,0.1,0,0.1l0.8,0.5c0,0,0,0,0.1,0l0.8-0.5c0,0,0-0.1,0-0.1L32.9,10.4
			C33,10.4,32.9,10.4,32.9,10.4z"/>
		<linearGradient id="SVGID_49_" gradientUnits="userSpaceOnUse" x1="32.9424" y1="11.4442" x2="32.9424" y2="4.6555">
			<stop  offset="0" style="stop-color:#00A0E9"/>
			<stop  offset="1" style="stop-color:#00A29A;stop-opacity:0"/>
		</linearGradient>
		<polygon class="st59" points="31.6,4.7 31.6,10.6 33,11.4 34.3,10.7 34.2,4.7 		"/>
		<polygon class="st28" points="29.5,14.3 29.5,17.6 30.3,18.1 30.3,14.9 		"/>
		<polygon class="st28" points="29.5,17.8 29.5,19 30.3,19.5 30.3,18.3 		"/>
		<polygon class="st28" points="32.1,18.1 32.1,21.5 33,22 33,18.8 		"/>
		<polygon class="st28" points="32.1,21.7 32.1,22.9 33,23.4 33,22.2 		"/>
		<polygon class="st28" points="36.4,14 36.4,17.3 35.6,17.9 35.6,14.6 		"/>
		<polygon class="st28" points="36.4,17.5 36.4,18.7 35.6,19.2 35.6,18 		"/>
		<polygon class="st29" points="33.8,18.1 33.8,21.5 33,22 33,18.8 		"/>
		<polygon class="st29" points="33.8,21.7 33.8,22.9 33,23.4 33,22.2 		"/>
		<linearGradient id="SVGID_50_" gradientUnits="userSpaceOnUse" x1="34.7048" y1="21.8575" x2="37.5781" y2="28.6917">
			<stop  offset="0" style="stop-color:#00A0E9"/>
			<stop  offset="1" style="stop-color:#00A29A;stop-opacity:0"/>
		</linearGradient>
		<polygon class="st60" points="33,24.4 33,28.7 40.3,24.2 37.3,21.9 		"/>
		<linearGradient id="SVGID_51_" gradientUnits="userSpaceOnUse" x1="28.2942" y1="28.1493" x2="31.5894" y2="22.8627">
			<stop  offset="0" style="stop-color:#00A0E9"/>
			<stop  offset="1" style="stop-color:#00A29A;stop-opacity:0"/>
		</linearGradient>
		<linearGradient id="SVGID_52_" gradientUnits="userSpaceOnUse" x1="24.7894" y1="25.4253" x2="33.4561" y2="25.4253">
			<stop  offset="0" style="stop-color:#00A0E9"/>
			<stop  offset="1" style="stop-color:#00A29A"/>
		</linearGradient>
		<polygon class="st61" points="33,24.4 32.9,28.7 25.7,24.4 28.6,21.9 		"/>
	</g>
</g>
<linearGradient id="SVGID_53_" gradientUnits="userSpaceOnUse" x1="82.3125" y1="16.562" x2="101.8608" y2="16.562">
	<stop  offset="0" style="stop-color:#00A29A"/>
	<stop  offset="1" style="stop-color:#00A0E9"/>
</linearGradient>
<path class="st62" d="M101.9,3.9v4.9h-6.7v20.3H89V8.9h-6.7V3.9H101.9z"/>
</svg>
