<?xml version="1.0" encoding="utf-8"?>
<!-- Generator: Adobe Illustrator 25.1.0, SVG Export Plug-In . SVG Version: 6.00 Build 0)  -->
<svg version="1.1" id="圖層_1" xmlns="http://www.w3.org/2000/svg" xmlns:xlink="http://www.w3.org/1999/xlink" x="0px" y="0px"
	 viewBox="0 0 174.6 38.4" style="enable-background:new 0 0 174.6 38.4;" xml:space="preserve">
<style type="text/css">
	.st0{fill:#B32A2A;}
	.st1{fill:#2A2A2A;}
	.st2{fill:url(#SVGID_1_);}
	.st3{enable-background:new    ;}
	.st4{fill:#26272A;}
	.st5{fill:#1E1E22;}
	.st6{fill:url(#SVGID_2_);}
	.st7{fill:#E99E15;}
	.st8{fill:url(#SVGID_3_);}
	.st9{fill:#B7781C;}
</style>
<path class="st0" d="M6.2,8.5v5.1h8.2v4.8H6.2v5.5h9.3v4.9H0V3.6h15.5v4.9H6.2z"/>
<path class="st0" d="M25.6,8.5v5.1h8.2v4.8h-8.2v5.5H35v4.9H19.5V3.6H35v4.9H25.6z"/>
<g>
	<path class="st1" d="M52.7,24.1h8.1v4.8H46.6V3.6h6.2L52.7,24.1L52.7,24.1z"/>
	<path class="st1" d="M64.2,5.7c-0.7-0.6-1-1.4-1-2.4s0.3-1.8,1-2.4c0.7-0.6,1.6-1,2.6-1c1.1,0,1.9,0.3,2.6,1c0.7,0.6,1,1.4,1,2.4
		c0,0.9-0.3,1.7-1,2.4c-0.7,0.6-1.6,1-2.6,1C65.8,6.7,64.9,6.3,64.2,5.7z M69.9,8.7v20.1h-6.2V8.7H69.9z"/>
	<path class="st1" d="M83,9.3c1.1-0.6,2.3-0.9,3.7-0.9c1.7,0,3.2,0.4,4.5,1.3c1.3,0.8,2.4,2,3.2,3.6c0.8,1.6,1.2,3.4,1.2,5.4
		c0,2.1-0.4,3.9-1.2,5.5c-0.8,1.6-1.8,2.8-3.2,3.6c-1.3,0.9-2.8,1.3-4.5,1.3c-1.4,0-2.7-0.3-3.7-0.8c-1-0.6-1.9-1.3-2.5-2.3v2.8
		h-6.2V2.2h6.2v9.4C81.1,10.7,81.9,9.9,83,9.3z M88,15.1c-0.9-0.9-1.9-1.3-3.1-1.3s-2.3,0.4-3.1,1.3c-0.9,0.9-1.3,2.1-1.3,3.6
		s0.4,2.7,1.3,3.6s1.9,1.3,3.1,1.3s2.3-0.4,3.1-1.3c0.9-0.9,1.3-2.1,1.3-3.7C89.3,17.2,88.9,16,88,15.1z"/>
	<path class="st1" d="M107.7,9.5c1.1-0.6,2.3-1,3.6-1V15h-1.7c-1.5,0-2.7,0.3-3.5,1c-0.8,0.7-1.2,1.8-1.2,3.5v9.3h-6.2V8.7h6.2V12
		C105.7,11,106.6,10.1,107.7,9.5z"/>
	<path class="st1" d="M147.5,9.5c1.1-0.6,2.3-1,3.6-1V15h-1.7c-1.5,0-2.7,0.3-3.5,1c-0.8,0.7-1.2,1.8-1.2,3.5v9.3h-6.2V8.7h6.2V12
		C145.5,11,146.4,10.1,147.5,9.5z"/>
	<path class="st1" d="M174.6,8.7L162,38.4h-6.6l4.6-10.2l-8.2-19.4h6.9l4.6,12.6l4.6-12.6h6.7V8.7z"/>
</g>
<g id="_x39_">
	<linearGradient id="SVGID_1_" gradientUnits="userSpaceOnUse" x1="115.6686" y1="21.9223" x2="132.7876" y2="21.9223">
		<stop  offset="0" style="stop-color:#131316"/>
		<stop  offset="1" style="stop-color:#26272A"/>
	</linearGradient>
	<path class="st2" d="M130.1,18.8c-3.4,2-8.9,2-12.3,0c-1.7-1-2.5-2.2-2.5-3.5v8.4c0,1.3,0.9,2.5,2.5,3.5c3.4,2,8.9,2,12.3,0
		c1.7-1,2.6-2.3,2.5-3.6v-8.4C132.7,16.5,131.8,17.8,130.1,18.8z"/>
	<g class="st3">
		<g>
			<polygon class="st4" points="137.7,16.4 137.7,17.1 124.3,24.9 124.3,24.2 			"/>
		</g>
		<g>
			<polygon class="st5" points="124.3,24.2 124.3,24.9 110.8,17.1 110.8,16.4 			"/>
		</g>
		<g>
			<linearGradient id="SVGID_2_" gradientUnits="userSpaceOnUse" x1="110.8063" y1="16.4019" x2="137.7368" y2="16.4019">
				<stop  offset="0" style="stop-color:#353437"/>
				<stop  offset="1" style="stop-color:#404145"/>
			</linearGradient>
			<polygon class="st6" points="137.7,16.4 124.3,24.2 110.8,16.4 124.2,8.6 			"/>
		</g>
	</g>
	<g>
		<g>
			<path class="st7" d="M117.4,29.6c-0.1,0-0.2-0.1-0.2-0.2v-9c0-0.2,0.1-0.4,0.3-0.5l6.6-3.8c0.1,0,0.2,0,0.2,0.1
				c0,0.1,0,0.2-0.1,0.2l-6.6,3.8c-0.1,0-0.1,0.1-0.1,0.2v9C117.6,29.6,117.5,29.6,117.4,29.6z"/>
			<linearGradient id="SVGID_3_" gradientUnits="userSpaceOnUse" x1="116.7927" y1="29.2825" x2="118.3775" y2="29.2825">
				<stop  offset="0" style="stop-color:#B7781C"/>
				<stop  offset="1" style="stop-color:#D89011"/>
			</linearGradient>
			<path class="st8" d="M117.4,28.1c-0.2-0.1-0.7,0.9-0.7,1.9c0,0.1,0.1,0.1,0.1,0.1c0,0.1,0,0.2,0.1,0.2c0,0,0,0,0,0
				c0,0.1,0.1,0.1,0.2,0.1c0,0.1,0.2,0.2,0.2,0c0,0.1,0.2,0.1,0.2,0c0,0,0.1,0,0.1,0c0.1,0.1,0.2,0,0.2-0.1c0,0,0-0.1,0-0.1
				C118.4,30.3,117.8,28,117.4,28.1z"/>
			<path class="st9" d="M117.3,20.3c0,0.1,0,0.1,0,0.2v7.8c0,0.1,0.3,0.1,0.3,0v-7.8c0,0,0,0,0,0C117.5,20.4,117.4,20.4,117.3,20.3z
				"/>
		</g>
		<path class="st7" d="M124.2,16.7c0.4,0.1,0.8-0.1,0.9-0.3c0.1-0.2-0.1-0.4-0.5-0.5c-0.4-0.1-0.8,0.1-0.9,0.3
			C123.6,16.4,123.8,16.6,124.2,16.7z"/>
	</g>
</g>
</svg>
