<?xml version="1.0" encoding="utf-8"?>
<!-- Generator: Adobe Illustrator 25.1.0, SVG Export Plug-In . SVG Version: 6.00 Build 0)  -->
<svg version="1.1" id="圖層_1" xmlns="http://www.w3.org/2000/svg" xmlns:xlink="http://www.w3.org/1999/xlink" x="0px" y="0px"
	 viewBox="0 0 184.2 29.1" style="enable-background:new 0 0 184.2 29.1;" xml:space="preserve">
<style type="text/css">
	.st0{opacity:0.59;fill:url(#SVGID_1_);}
	.st1{opacity:0.59;fill:url(#SVGID_2_);}
	.st2{opacity:0.59;fill:url(#SVGID_3_);}
	.st3{opacity:0.59;fill:url(#SVGID_4_);}
	.st4{opacity:0.59;fill:url(#SVGID_5_);}
	.st5{fill:#666666;}
	.st6{opacity:0.59;}
	.st7{fill:url(#SVGID_6_);}
</style>
<linearGradient id="SVGID_1_" gradientUnits="userSpaceOnUse" x1="0" y1="16.2" x2="19.2603" y2="16.2">
	<stop  offset="0" style="stop-color:#00A29A"/>
	<stop  offset="1" style="stop-color:#00A0E9"/>
</linearGradient>
<path class="st0" d="M18.3,15.7c-0.7,1.2-1.7,2.2-3.1,2.9c-1.4,0.7-3.1,1.1-5.2,1.1H6.2v9.1H0V3.6h10c2,0,3.7,0.3,5.1,1
	c1.4,0.7,2.4,1.7,3.1,2.9c0.7,1.2,1,2.6,1,4.2C19.3,13.2,18.9,14.5,18.3,15.7z M12.1,14c0.6-0.6,0.9-1.3,0.9-2.3
	c0-1-0.3-1.8-0.9-2.3c-0.6-0.6-1.5-0.8-2.6-0.8H6.2v6.3h3.3C10.7,14.9,11.6,14.6,12.1,14z"/>
<linearGradient id="SVGID_2_" gradientUnits="userSpaceOnUse" x1="20.5562" y1="16.2" x2="46.188" y2="16.2">
	<stop  offset="0" style="stop-color:#00A29A"/>
	<stop  offset="1" style="stop-color:#00A0E9"/>
</linearGradient>
<path class="st1" d="M46.2,3.6l-9,25.3h-7.7l-9-25.3h6.6l6.3,19.1l6.3-19.1H46.2z"/>
<linearGradient id="SVGID_3_" gradientUnits="userSpaceOnUse" x1="48.7437" y1="16.2" x2="71.46" y2="16.2">
	<stop  offset="0" style="stop-color:#00A29A"/>
	<stop  offset="1" style="stop-color:#00A0E9"/>
</linearGradient>
<path class="st2" d="M65.2,5.1c2,1.1,3.5,2.5,4.6,4.4c1.1,1.9,1.6,4.1,1.6,6.6c0,2.5-0.5,4.7-1.6,6.6c-1.1,1.9-2.6,3.4-4.6,4.5
	c-2,1.1-4.3,1.6-7,1.6h-9.5V3.6h9.5C60.9,3.6,63.2,4.1,65.2,5.1z M63.3,21.6c1.3-1.3,1.9-3.1,1.9-5.4c0-2.3-0.6-4.1-1.9-5.4
	c-1.3-1.3-3.1-1.9-5.4-1.9h-2.9v14.7h2.9C60.1,23.5,62,22.9,63.3,21.6z"/>
<linearGradient id="SVGID_4_" gradientUnits="userSpaceOnUse" x1="81.1787" y1="16.2585" x2="100.7271" y2="16.2585">
	<stop  offset="0" style="stop-color:#00A29A"/>
	<stop  offset="1" style="stop-color:#00A0E9"/>
</linearGradient>
<path class="st3" d="M100.7,3.6v4.9H94v20.3h-6.2V8.6h-6.7V3.6H100.7z"/>
<linearGradient id="SVGID_5_" gradientUnits="userSpaceOnUse" x1="103.8223" y1="16.2" x2="123.9824" y2="16.2">
	<stop  offset="0" style="stop-color:#00A29A"/>
	<stop  offset="1" style="stop-color:#00A0E9"/>
</linearGradient>
<path class="st4" d="M122.7,18.1c0.9,1.1,1.3,2.4,1.3,3.9c0,2.1-0.7,3.8-2.2,5c-1.5,1.2-3.5,1.9-6.2,1.9h-11.8V3.6h11.4
	c2.6,0,4.6,0.6,6,1.8c1.5,1.2,2.2,2.8,2.2,4.8c0,1.5-0.4,2.7-1.2,3.7c-0.8,1-1.8,1.7-3.1,2.1C120.6,16.2,121.8,16.9,122.7,18.1z
	 M110,13.8h4c1,0,1.8-0.2,2.3-0.7c0.5-0.4,0.8-1.1,0.8-2c0-0.9-0.3-1.5-0.8-2S115,8.5,114,8.5h-4V13.8z M116.9,23.2
	c0.6-0.5,0.8-1.1,0.8-2c0-0.9-0.3-1.6-0.9-2.1c-0.6-0.5-1.4-0.8-2.4-0.8H110v5.6h4.5C115.5,23.9,116.3,23.6,116.9,23.2z"/>
<path class="st5" d="M141.3,24.1h8.1v4.8h-14.2V3.6h6.2V24.1z"/>
<path class="st5" d="M152.8,5.7c-0.7-0.6-1-1.4-1-2.4c0-1,0.3-1.8,1-2.4c0.7-0.6,1.6-1,2.6-1c1.1,0,1.9,0.3,2.6,1
	c0.7,0.6,1,1.4,1,2.4c0,0.9-0.3,1.7-1,2.4c-0.7,0.6-1.6,1-2.6,1C154.4,6.7,153.5,6.3,152.8,5.7z M158.5,8.7v20.1h-6.2V8.7H158.5z"/>
<path class="st5" d="M171.6,9.3c1.1-0.6,2.3-0.9,3.7-0.9c1.7,0,3.2,0.4,4.5,1.3c1.3,0.8,2.4,2,3.2,3.6c0.8,1.6,1.2,3.4,1.2,5.4
	c0,2.1-0.4,3.9-1.2,5.5c-0.8,1.6-1.8,2.8-3.2,3.6c-1.3,0.9-2.8,1.3-4.5,1.3c-1.4,0-2.7-0.3-3.7-0.8c-1.1-0.6-1.9-1.3-2.5-2.2v2.8
	H163V2.2h6.2v9.4C169.7,10.7,170.5,9.9,171.6,9.3z M176.6,15.1c-0.9-0.9-1.9-1.3-3.1-1.3c-1.2,0-2.3,0.4-3.1,1.3
	c-0.9,0.9-1.3,2.1-1.3,3.6c0,1.5,0.4,2.7,1.3,3.6c0.9,0.9,1.9,1.3,3.1,1.3c1.2,0,2.3-0.4,3.1-1.3c0.9-0.9,1.3-2.1,1.3-3.7
	C177.9,17.2,177.5,16,176.6,15.1z"/>
<g class="st6">
	<linearGradient id="SVGID_6_" gradientUnits="userSpaceOnUse" x1="73.2375" y1="27.9106" x2="80.6774" y2="27.9106">
		<stop  offset="0" style="stop-color:#00A29A"/>
		<stop  offset="1" style="stop-color:#00A0E9"/>
	</linearGradient>
	<path class="st7" d="M80.7,26.9v2h-7.4v-2H80.7z"/>
</g>
</svg>
